<svg width="580" height="400" xmlns="http://www.w3.org/2000/svg">
 <!-- Created with Method Draw - http://github.com/duopixel/Method-Draw/ -->

 <g>
  <title>background</title>
  <rect fill="none" id="canvas_background" height="402" width="582" y="-1" x="-1"/>
  <g display="none" overflow="visible" y="0" x="0" height="100%" width="100%" id="canvasGrid">
   <rect fill="url(#gridpattern)" stroke-width="0" y="0" x="0" height="100%" width="100%"/>
  </g>
 </g>
 <g>
  <title>Layer 1</title>
  <g id="svg_15">
   <circle transform="matrix(2.407, 0, 0, 2.04283, -286.457, -121.469)" id="svg_4" r="1.846001" cy="179.959664" cx="239.490195" fill="#ffffff"/>
   <path fill="#ffffff" id="svg_5" d="m185.308578,130.055573l0,100.149719l132.522354,0l0,-100.149719l-132.522354,0zm84.93837,50.255646l0,2.986603l-57.070068,0l0,-2.986603l57.070068,0zm-20.637665,-1.93457l-36.432404,0l0,-2.986603l36.432404,0l0,2.986603zm-48.939194,-38.307129l10.034775,0l0,2.986633l-10.034775,0l0,-2.986633zm0,5.031494l25.011169,0l0,2.986603l-25.011169,0l0,-2.986603zm0,5.029434l33.349014,0l0,2.986633l-33.349014,0l0,-2.986633zm0,5.029434l25.011169,0l0,2.986633l-25.011169,0l0,-2.986633zm0,5.031494l25.011169,0l0,2.986633l-25.011169,0l0,-2.986633zm0,5.029449l10.034775,0l0,2.986633l-10.034775,0l0,-2.986633zm0,5.031494l16.77681,0l0,2.986633l-16.77681,0l0,-2.986633zm0,5.137726l10.034775,0l0,2.986603l-10.034775,0l0,-2.986603zm0,4.921173l10.034775,0l0,2.986603l-10.034775,0l0,-2.986603zm0,5.031494l10.034775,0l0,2.986618l-10.034775,0l0,-2.986618zm0,5.029434l79.946152,0l0,2.986618l-79.946152,0l0,-2.986618zm0,5.031494l10.034775,0l0,2.986618l-10.034775,0l0,-2.986618zm-2.404602,23.10849l-3.04245,0l0,-2.988663l3.04245,0l0,2.988663zm0,-5.031494l-3.04245,0l0,-2.986618l3.04245,0l0,2.986618zm0,-5.029434l-3.04245,0l0,-2.986649l3.04245,0l0,2.986649zm0,-5.029449l-3.04245,0l0,-2.988663l3.04245,0l0,2.988663zm0,-5.031494l-3.04245,0l0,-2.986618l3.04245,0l0,2.986618zm0,-5.031494l-3.04245,0l0,-2.986618l3.04245,0l0,2.986618zm0,-5.029434l-3.04245,0l0,-2.986618l3.04245,0l0,2.986618zm0,-5.031509l-3.04245,0l0,-2.986603l3.04245,0l0,2.986603zm0,-5.029434l-3.04245,0l0,-2.986633l3.04245,0l0,2.986633zm0,-5.029434l-3.04245,0l0,-2.986633l3.04245,0l0,2.986633zm0,-5.031494l-3.04245,0l0,-2.986633l3.04245,0l0,2.986633zm0,-5.029449l-3.04245,0l0,-2.986633l3.04245,0l0,2.986633zm0,-5.031494l-3.04245,0l0,-2.986633l3.04245,0l0,2.986633zm0,-5.029434l-3.04245,0l0,-2.986633l3.04245,0l0,2.986633zm0,-5.029465l-3.04245,0l0,-2.986603l3.04245,0l0,2.986603zm0,-5.031464l-3.04245,0l0,-2.986633l3.04245,0l0,2.986633zm19.181412,75.455978l-16.77681,0l0,-2.988663l16.77681,0l0,2.988663zm3.742889,-5.031494l-20.519699,0l0,-2.986618l20.519699,0l0,2.986618zm20.522095,-5.029434l-41.041794,0l0,-2.986649l41.041794,0l0,2.986649zm7.894974,-5.029449l-48.936768,0l0,-2.988663l48.936768,0l0,2.988663zm31.011795,-5.031494l-67.441772,0l0,-2.986618l67.441772,0l0,2.986618zm12.417786,-10.060928l-79.859558,0l0,-2.986618l79.859558,0l0,2.986618zm12.439331,0l-10.03717,0l0,-2.986618l10.03717,0l0,2.986618z"/>
   <polygon fill="#ffffff" id="svg_6" points="353.813232421875,219.36602783203125 353.813232421875,189.4344940185547 326.07733154296875,189.4344940185547 326.07733154296875,219.36602783203125 326.07733154296875,219.3701171875 353.813232421875,219.3701171875 "/>
   <path fill="#ffffff" id="svg_7" d="m397.512329,122.260132l-105.621643,0l-3.59845,0l-105.621704,0c-3.762161,0 -7.004379,2.428925 -7.004379,5.621872l0,110.504791l0,0.384064l0,10.238663l0,0.639389c0,3.192978 3.242218,5.877243 7.004379,5.877243l84.596527,0c-0.098724,1.830383 -0.772675,9.715698 -5.187103,13.529633c-3.478088,3.013214 -8.311386,5.830292 -6.424271,7.278625c0.457321,0.892731 2.626022,1.405457 7.557968,1.405457c10.88205,0 22.664337,0 26.977692,0c1.090332,0 1.704102,0 1.704102,0c4.310974,0 16.098083,0 26.975281,0c5.617981,0 7.579712,-0.782379 7.598999,-1.944763l-0.192627,0l0,-0.386108l-0.197327,0c-0.250366,-1.572937 -3.998047,-3.893616 -6.835938,-6.342957c-4.414429,-3.813965 -5.083557,-11.695221 -5.182251,-13.525589l83.460449,0c3.762146,0 6.811829,-2.68428 6.811829,-5.881302l0,-0.639389l0,-10.238678l0,-0.384048l0,-110.512993c-0.004883,-3.197044 -3.059326,-5.623909 -6.821533,-5.623909zm-107.515991,127.668671c-2.45755,0 -4.445709,-1.683289 -4.445709,-3.771072c0,-2.083664 1.988159,-3.771072 4.445709,-3.771072c2.45517,0 4.44574,1.687408 4.44574,3.771072c0,2.085754 -1.992981,3.771072 -4.44574,3.771072zm104.690247,-19.723511l-76.855652,0l-132.522354,0l0,-100.149719l132.522354,0l76.855652,0l0,100.149719z"/>
   <rect fill="#ffffff" transform="matrix(2.407, 0, 0, 2.04283, -286.457, -121.469)" id="svg_8" height="4.925" width="25.047" y="128.609664" x="254.480195"/>
   <rect fill="#ffffff" transform="matrix(2.407, 0, 0, 2.04283, -286.457, -121.469)" id="svg_9" height="14.652" width="11.523" y="135.540664" x="254.480195"/>
   <rect fill="#ffffff" transform="matrix(2.407, 0, 0, 2.04283, -286.457, -121.469)" id="svg_10" height="14.652" width="11.523" y="135.540664" x="268.003195"/>
   <polygon fill="#ffffff" id="svg_11" points="358.62725830078125,219.36602783203125 358.62725830078125,219.3701171875 386.36553955078125,219.3701171875 386.36553955078125,219.36602783203125 386.36553955078125,189.4344940185547 358.62725830078125,189.4344940185547 "/>
  </g>
 </g>
</svg>